# xmcd
#
# Track frame offsets:
#  150
#  12527
#  27905
#  46357
#  56185
#  73362
#  84539
#  98642
#  114844
#  127371
#  141398
#  162063
#
# Disc length: 2304 seconds
#
# Revision: 0
# Processed by: cddbd v1.5.1PL2 Copyright (c) Steve Scherf et al.
# Submitted via: Collectorz.com_Music_Collector 6.9
#
DISCID=ad08fe0c
DTITLE=Mel McDaniel and Oklahoma Wind - Reloaded
DYEAR=1900
DGENRE=
TTITLE0=Baby's Got Her Blue Jeans On
TTITLE1=Doo - Ma - Flatchey
TTITLE2=Help Me Make It Through The Night
TTITLE3=Louisiana Saturday Night
TTITLE4=Horseshoes And Hand Grenades
TTITLE5=Jukin'
TTITLE6=I Can Live With It If You Can Live Without It
TTITLE7=Shoeshine Man
TTITLE8=You Really Never Loved Her Anyway
TTITLE9=She Knows What To Do With A Saturday Night
TTITLE10=Plastic Girl
TTITLE11=Stand Up
EXTD=
EXTT0=
EXTT1=
EXTT2=
EXTT3=
EXTT4=
EXTT5=
EXTT6=
EXTT7=
EXTT8=
EXTT9=
EXTT10=
EXTT11=
PLAYORDER=
